ffmpeg version 3.4.8-0ubuntu0.2 Copyright (c) 2000-2020 the FFmpeg developers
  built with gcc 7 (Ubuntu 7.5.0-3ubuntu1~18.04)
  configuration: --prefix=/usr --extra-version=0ubuntu0.2 --toolchain=hardened --libdir=/usr/lib/x86_64-linux-gnu --incdir=/usr/include/x86_64-linux-gnu --enable-gpl --disable-stripping --enable-avresample --enable-avisynth --enable-gnutls --enable-ladspa --enable-libass --enable-libbluray --enable-libbs2b --enable-libcaca --enable-libcdio --enable-libflite --enable-libfontconfig --enable-libfreetype --enable-libfribidi --enable-libgme --enable-libgsm --enable-libmp3lame --enable-libmysofa --enable-libopenjpeg --enable-libopenmpt --enable-libopus --enable-libpulse --enable-librubberband --enable-librsvg --enable-libshine --enable-libsnappy --enable-libsoxr --enable-libspeex --enable-libssh --enable-libtheora --enable-libtwolame --enable-libvorbis --enable-libvpx --enable-libwavpack --enable-libwebp --enable-libx265 --enable-libxml2 --enable-libxvid --enable-libzmq --enable-libzvbi --enable-omx --enable-openal --enable-opengl --enable-sdl2 --enable-libdc1394 --enable-libdrm --enable-libiec61883 --enable-chromaprint --enable-frei0r --enable-libopencv --enable-libx264 --enable-shared
  libavutil      55. 78.100 / 55. 78.100
  libavcodec     57.107.100 / 57.107.100
  libavformat    57. 83.100 / 57. 83.100
  libavdevice    57. 10.100 / 57. 10.100
  libavfilter     6.107.100 /  6.107.100
  libavresample   3.  7.  0 /  3.  7.  0
  libswscale      4.  8.100 /  4.  8.100
  libswresample   2.  9.100 /  2.  9.100
  libpostproc    54.  7.100 / 54.  7.100
Input #0, matroska,webm, from '../.././Samples/wmaproEOF.mkv':
  Metadata:
    encoder         : Haali DirectShow Matroska Muxer 1.7.401.3
    creation_time   : 2008-08-26T13:59:28.396000Z
  Duration: 00:25:20.29, start: 0.000000, bitrate: 55 kb/s
    Stream #0:0(eng): Audio: wmapro (b[1][0][0] / 0x0162), 48000 Hz, stereo, fltp, 191 kb/s
    Stream #0:1(eng): Video: wmv3 (Main) (WMV3 / 0x33564D57), yuv420p, 704x396, SAR 1:1 DAR 16:9, 23.98 tbr, 1k tbn, 1k tbc
Stream mapping:
  Stream #0:1 -> #0:0 (wmv3 (native) -> h264 (libx264))
  Stream #0:0 -> #0:1 (wmapro (native) -> aac (native))
Press [q] to stop, [?] for help
[libx264 @ 0x5583b8fb4800] using SAR=1/1
[libx264 @ 0x5583b8fb4800] using cpu capabilities: MMX2 SSE2Fast SSSE3 SSE4.2 AVX FMA3 BMI2 AVX2
[libx264 @ 0x5583b8fb4800] profile High, level 3.0
[libx264 @ 0x5583b8fb4800] 264 - core 152 r2854 e9a5903 - H.264/MPEG-4 AVC codec - Copyleft 2003-2017 - http://www.videolan.org/x264.html - options: cabac=1 ref=3 deblock=1:0:0 analyse=0x3:0x113 me=hex subme=7 psy=1 psy_rd=1.00:0.00 mixed_ref=1 me_range=16 chroma_me=1 trellis=1 8x8dct=1 cqm=0 deadzone=21,11 fast_pskip=1 chroma_qp_offset=-2 threads=6 lookahead_threads=1 sliced_threads=0 nr=0 decimate=1 interlaced=0 bluray_compat=0 constrained_intra=0 bframes=3 b_pyramid=2 b_adapt=1 b_bias=0 direct=1 weightb=1 open_gop=0 weightp=2 keyint=250 keyint_min=23 scenecut=40 intra_refresh=0 rc_lookahead=40 rc=crf mbtree=1 crf=23.0 qcomp=0.60 qpmin=0 qpmax=69 qpstep=4 ip_ratio=1.40 aq=1:1.00
Output #0, mov, to '/home/aleksandr/Pract/Samples/wmaproEOF.mkv_tc/output_tc2.mov':
  Metadata:
    encoder         : Lavf57.83.100
    Stream #0:0(eng): Video: h264 (libx264) (avc1 / 0x31637661), yuv420p, 704x396 [SAR 1:1 DAR 16:9], q=-1--1, 23.98 fps, 24k tbn, 23.98 tbc
    Metadata:
      encoder         : Lavc57.107.100 libx264
    Side data:
      cpb: bitrate max/min/avg: 0/0/0 buffer size: 0 vbv_delay: -1
    Stream #0:1(eng): Audio: aac (LC) (mp4a / 0x6134706D), 48000 Hz, stereo, fltp, 128 kb/s
    Metadata:
      encoder         : Lavc57.107.100 aac
frame=  118 fps=0.0 q=28.0 size=       0kB time=00:00:05.07 bitrate=   0.1kbits/s dup=15 drop=0 speed=9.92x    frame=  216 fps=211 q=28.0 size=     256kB time=00:00:09.47 bitrate= 221.5kbits/s dup=15 drop=0 speed=9.26x    frame=  294 fps=193 q=28.0 size=     256kB time=00:00:12.24 bitrate= 171.3kbits/s dup=15 drop=0 speed=8.02x    frame=  349 fps=172 q=28.0 size=     512kB time=00:00:14.50 bitrate= 289.2kbits/s dup=15 drop=0 speed=7.13x    frame=  419 fps=165 q=28.0 size=     768kB time=00:00:17.96 bitrate= 350.3kbits/s dup=15 drop=0 speed=7.08x    frame=  528 fps=174 q=28.0 size=    1024kB time=00:00:22.09 bitrate= 379.8kbits/s dup=15 drop=0 speed=7.27x    frame=  658 fps=186 q=28.0 size=    1280kB time=00:00:27.43 bitrate= 382.2kbits/s dup=15 drop=0 speed=7.74x    frame=  768 fps=190 q=28.0 size=    1536kB time=00:00:32.55 bitrate= 386.5kbits/s dup=15 drop=0 speed=8.05x    frame=  904 fps=199 q=28.0 size=    1536kB time=00:00:38.00 bitrate= 331.1kbits/s dup=15 drop=0 speed=8.36x    frame= 1012 fps=200 q=28.0 size=    1792kB time=00:00:42.32 bitrate= 346.8kbits/s dup=15 drop=0 speed=8.38x    frame= 1146 fps=206 q=28.0 size=    2048kB time=00:00:47.98 bitrate= 349.6kbits/s dup=15 drop=0 speed=8.65x    frame= 1276 fps=211 q=28.0 size=    2304kB time=00:00:53.46 bitrate= 353.1kbits/s dup=15 drop=0 speed=8.83x    frame= 1345 fps=205 q=28.0 size=    2304kB time=00:00:56.56 bitrate= 333.7kbits/s dup=15 drop=0 speed= 8.6x    frame= 1416 fps=200 q=28.0 size=    2560kB time=00:00:59.08 bitrate= 355.0kbits/s dup=15 drop=0 speed=8.34x    [matroska,webm @ 0x5583b8f92000] Read error
frame= 1424 fps=192 q=-1.0 Lsize=    2873kB time=00:00:59.75 bitrate= 393.9kbits/s dup=15 drop=0 speed=8.06x    
video:1880kB audio:952kB subtitle:0kB other streams:0kB global headers:0kB muxing overhead: 1.450562%
[libx264 @ 0x5583b8fb4800] frame I:15    Avg QP:18.08  size: 26816
[libx264 @ 0x5583b8fb4800] frame P:721   Avg QP:20.14  size:  1800
[libx264 @ 0x5583b8fb4800] frame B:688   Avg QP:23.10  size:   326
[libx264 @ 0x5583b8fb4800] consecutive B-frames: 29.1% 16.2% 10.1% 44.7%
[libx264 @ 0x5583b8fb4800] mb I  I16..4: 17.4% 55.1% 27.5%
[libx264 @ 0x5583b8fb4800] mb P  I16..4:  0.6%  1.0%  0.5%  P16..4: 14.2%  3.9%  3.5%  0.0%  0.0%    skip:76.3%
[libx264 @ 0x5583b8fb4800] mb B  I16..4:  0.1%  0.2%  0.1%  B16..8: 14.1%  0.7%  0.1%  direct: 0.4%  skip:84.4%  L0:46.0% L1:51.2% BI: 2.8%
[libx264 @ 0x5583b8fb4800] 8x8 transform intra:50.5% inter:66.4%
[libx264 @ 0x5583b8fb4800] coded y,uvDC,uvAC intra: 51.1% 57.1% 34.8% inter: 3.1% 4.8% 0.4%
[libx264 @ 0x5583b8fb4800] i16 v,h,dc,p: 53% 26% 12%  9%
[libx264 @ 0x5583b8fb4800] i8 v,h,dc,ddl,ddr,vr,hd,vl,hu: 29% 17% 38%  2%  2%  4%  2%  4%  2%
[libx264 @ 0x5583b8fb4800] i4 v,h,dc,ddl,ddr,vr,hd,vl,hu: 33% 13% 15%  6%  7% 11%  4%  8%  3%
[libx264 @ 0x5583b8fb4800] i8c dc,h,v,p: 52% 20% 25%  4%
[libx264 @ 0x5583b8fb4800] Weighted P-Frames: Y:1.7% UV:1.4%
[libx264 @ 0x5583b8fb4800] ref P L0: 70.5%  6.5% 15.5%  7.4%  0.0%
[libx264 @ 0x5583b8fb4800] ref B L0: 84.5% 11.1%  4.4%
[libx264 @ 0x5583b8fb4800] ref B L1: 94.9%  5.1%
[libx264 @ 0x5583b8fb4800] kb/s:259.22
[aac @ 0x5583b8fb5700] Qavg: 1710.270
	Command being timed: "/usr/bin/ffmpeg -i ../.././Samples/wmaproEOF.mkv -c:v libx264 -f mov /home/aleksandr/Pract/Samples/wmaproEOF.mkv_tc/output_tc2.mov"
	User time (seconds): 23.51
	System time (seconds): 0.19
	Percent of CPU this job got: 317%
	Elapsed (wall clock) time (h:mm:ss or m:ss): 0:07.46
	Average shared text size (kbytes): 0
	Average unshared data size (kbytes): 0
	Average stack size (kbytes): 0
	Average total size (kbytes): 0
	Maximum resident set size (kbytes): 132796
	Average resident set size (kbytes): 0
	Major (requiring I/O) page faults: 0
	Minor (reclaiming a frame) page faults: 25864
	Voluntary context switches: 9417
	Involuntary context switches: 1739
	Swaps: 0
	File system inputs: 0
	File system outputs: 5768
	Socket messages sent: 0
	Socket messages received: 0
	Signals delivered: 0
	Page size (bytes): 4096
	Exit status: 0
